<?xml version="1.0" encoding="UTF-8"?><svg id="Layer_1" xmlns="http://www.w3.org/2000/svg" viewBox="0 0 534.21 144.24"><defs><style>.cls-1{fill:#231f20;}</style></defs><polygon class="cls-1" points="59.17 118.34 59.17 93.32 93.32 93.32 93.32 25.02 59.17 25.02 59.17 0 118.34 0 118.34 118.34 59.17 118.34"/><path class="cls-1" d="M59.17,118.34c-18.38,0-33.27-15.77-33.27-34.15s14.9-33.27,33.27-33.27V25.02C26.49,25.02,0,51.51,0,84.19s26.49,60.05,59.17,60.05v-25.9Z"/><path class="cls-1" d="M287.95,48.06c-16.27,0-37.02,10.84-37.02,35.12,0,21.54,14.23,35.29,38.71,35.29,15.12,0,22.77-2.38,29.58-5.73v-14.78c-7.35,2.35-15.15,4.03-22.26,4.03-9.96,0-17.97-3.27-21.98-9.21h47.75c4.15-23.09-8.81-44.72-34.78-44.72Zm.02,18.75c9.59,0,13.35,6.16,14.31,11.01h-29.37c2.56-8.65,11.17-11.01,15.06-11.01Z"/><path class="cls-1" d="M437.68,48.06c-16.27,0-37.02,10.84-37.02,35.12,0,21.54,14.23,35.29,38.71,35.29,15.12,0,22.77-2.38,29.58-5.73v-14.78c-7.35,2.35-15.15,4.03-22.26,4.03-9.96,0-17.97-3.27-21.98-9.21h47.75c4.15-23.09-8.81-44.72-34.78-44.72Zm.02,18.75c9.59,0,13.35,6.16,14.31,11.01h-29.37c2.56-8.65,11.17-11.01,15.06-11.01Z"/><path class="cls-1" d="M524.22,48.06c-11.29,0-18.06,5.45-21.32,13.66v-11.45h-20.86V116.02h20.86v-36.24c6.6-10.81,17.23-11.24,29.31-11.25l2-19.69c-3.01-.55-6.4-.78-9.99-.78Z"/><polygon class="cls-1" points="376.09 116.02 399.77 50.27 377.87 50.27 362.08 94.06 346.29 50.27 324.39 50.27 348.06 116.02 376.09 116.02"/><path class="cls-1" d="M219.62,117.25h20.86V23.43h-20.86v27.73c-20.82-6.7-49.93,4.38-49.93,33.48,0,21.38,15.77,33.96,32.18,34.52,5.92,.2,12.05-1.17,17.74-4.25v2.34Zm-11.21-15.82c-10.77,0-16.56-7.88-16.56-16.78s5.8-16.78,16.56-16.78c3.81,0,8.15,.57,11.21,1.9v29.77c-3.05,1.33-7.39,1.9-11.21,1.9Z"/></svg>